<?xml version="1.0" encoding="UTF-8"?>
<svg width="640" height="480" xmlns="http://www.w3.org/2000/svg" xmlns:svg="http://www.w3.org/2000/svg">
 <title>Blue Bus</title>
 <metadata id="metadata7">image/svg+xml</metadata>
 <g>
  <title>Layer 1</title>
  <g id="g17987">
   <path fill="#7f7f7f" stroke="#000000" stroke-width="5.1" stroke-miterlimit="4" id="path16231" d="m62.98105,245.84169a22.56989,23.48181 0 1 1 -0.37661,-0.65033"/>
   <path fill="#7f7f7f" stroke="#000000" stroke-width="5.1" stroke-miterlimit="4" id="path17106" d="m72.68632,250.67108a18.78198,19.54085 0 1 1 -0.3134,-0.54118"/>
   <path fill="#7f7f7f" stroke="#000000" stroke-width="5.1" stroke-miterlimit="4" id="path17110" d="m82.77498,257.73218a15.1342,15.74568 0 1 1 -0.25256,-0.43613"/>
   <path fill="#7f7f7f" stroke="#000000" stroke-width="5.1" stroke-miterlimit="4" id="path17108" d="m92.47217,262.8259a13.78483,14.34179 0 1 1 -0.23004,-0.39722"/>
   <path fill="#7f7f7f" fill-rule="evenodd" stroke-width="1px" d="m77.32203,262.04065c-10.99748,-9.13655 -31.67837,-21.66605 -43.2865,-21.11003c-6.20925,0.29742 -14.76588,19.84843 -10.16573,23.67021c9.73748,8.08975 39.12965,12.73718 53.1786,12.06427c3.76844,-0.18054 3.61378,-11.84949 0.27363,-14.62445z" id="path17112"/>
  </g>
  <g id="g17994">
   <path fill="#bfbfbf" stroke="#000000" stroke-width="5.1" stroke-miterlimit="4" id="path17996" d="m74.46565,244.16553a19.11612,19.88848 0 1 1 -0.16578,-0.55288"/>
   <path fill="#bfbfbf" stroke="#000000" stroke-width="5.1" stroke-miterlimit="4" id="path17998" d="m80.8587,249.49933a15.90785,16.55059 0 1 1 -0.13796,-0.46008"/>
   <path fill="#bfbfbf" stroke="#000000" stroke-width="5.1" stroke-miterlimit="4" id="path18000" d="m87.14147,256.56876a12.81828,13.33619 0 1 1 -0.11118,-0.37076"/>
   <path fill="#bfbfbf" stroke="#000000" stroke-width="5.1" stroke-miterlimit="4" id="path18002" d="m93.48148,262.0986a11.67539,12.14712 0 1 1 -0.10125,-0.33764"/>
   <path fill="#bfbfbf" fill-rule="evenodd" stroke-width="1px" d="m82.30118,258.81857c-6.59285,-8.78175 -19.81778,-21.82013 -28.59001,-23.46832c-4.69231,-0.88164 -14.56137,12.20537 -11.80364,15.87871c5.8375,7.77559 26.97259,16.47328 37.58933,18.46809c2.8478,0.53504 4.8067,-8.21127 2.80432,-10.87848z" id="path18004"/>
  </g>
  <path fill="#3f3f3f" fill-rule="evenodd" stroke="#000000" stroke-width="2.230682" stroke-miterlimit="4" id="path3979" d="m200.82384,213.21046c-18.71048,-4.02494 -46.12349,21.86512 -55.69629,43.51272c-9.57279,21.64758 -1.30538,39.05261 17.40509,43.07757c18.71048,4.02493 47.864,-5.33029 57.4368,-26.97787c9.5728,-21.6476 -0.43514,-55.58751 -19.1456,-59.61241l0,-0.00001z"/>
  <path fill="#3f3f3f" fill-rule="evenodd" stroke="#000000" stroke-width="2.230682" stroke-miterlimit="4" id="path3981" d="m472.81137,212.16109c-18.71045,-4.0249 -46.12344,21.86513 -55.69626,43.51272c-9.57278,21.6476 -1.30536,39.05266 17.40509,43.07759c18.71048,4.02494 47.86396,-5.33029 57.43677,-26.97787c9.57278,-21.64758 -0.43512,-55.58751 -19.1456,-59.61244z"/>
  <path fill="#ff7f00" fill-rule="evenodd" stroke="#000000" stroke-width="2.230682" stroke-miterlimit="4" d="m95.3422,252.31l-0.6154,-20.922l5.5382,-3.692l-3.0767,-11.077l3.6917,-1.846l0.616,-20.307l-6.1538,-1.846l0.6153,-8.61499l6.1535,-3.69201c5.436,-39.794 6.564,-82.3565 20.923,-115.6886l-3.077,-7.9998c40.819,-34.6654 133.328,-39.178 209.22299,-44.9214c170.39701,-16.47227 227.88898,26.0504 235.68402,45.5368l-22.15301,5.5383l-4.30799,16.6148l9.84601,79.9969l12.92298,-1.23l5.53802,7.999l-13.53802,9.84601l-9.22998,41.22898l7.38397,0.61602l-3.69202,32.614l-3.69195,14.76899l-48.61402,18.15299c-16.51199,-16.71799 25.435,-52.81899 -32.61401,-64.30599c-21.538,-2.666 -36.922,27.282 -49.845,54.152c-64.40799,4.10299 -133.12299,5.12799 -198.14598,1.846c0.81999,-10.46099 26.68998,-42.969 -16.61501,-54.151c-47.899,-8.268 -30.97301,31.998 -52.306,44.92099l-53.5366,-3.69198l3.0768,-9.84601l0,0zm469.89578,-194.345c-3.77796,26.5495 -3.49201,74.183 -4.65699,99.544" id="path3961"/>
  <path fill="#000000" fill-rule="evenodd" stroke="#000000" stroke-width="2.230682" stroke-miterlimit="4" id="path5731" d="m459.29108,246.11897c-4.6883,-1.00848 -11.55713,5.47873 -13.95578,10.90291c-2.39865,5.42426 -0.32709,9.7854 4.36117,10.79388c4.68827,1.00855 11.99323,-1.33554 14.39188,-6.75979c2.39865,-5.42418 -0.10904,-13.92847 -4.79727,-14.937z"/>
  <path fill="#007fff" fill-rule="evenodd" stroke="#000000" stroke-width="2.230682" stroke-miterlimit="4" id="path3965" d="m514.59381,273.06506c-0.51276,-48.81884 34.97308,-11.79446 43.99847,-25.84523c5.74335,-0.30769 3.48707,12.9226 -0.92303,20.61461c-3.07684,7.89719 -35.07568,5.64084 -43.07544,5.23062z"/>
  <path fill="#bfbfbf" fill-rule="evenodd" stroke="#000000" stroke-width="2.230682" stroke-miterlimit="4" id="path3967" d="m560.36676,213.68254c5.12805,-7.89719 6.25617,-27.48618 0.30768,-35.38335c-10.97394,-16.61483 -17.94806,33.53727 -15.07636,37.53708c8.92273,0.82056 6.76899,-1.7435 14.76868,-2.15373z"/>
  <path fill="#bfbfbf" fill-rule="evenodd" stroke="#000000" stroke-width="2.230682" stroke-miterlimit="4" id="path3969" d="m200.56921,75.39322c-1.64097,29.33228 -3.28193,58.66458 -4.92289,87.99687c-21.43515,4.7178 -41.33188,2.97424 -68.92064,6.76898c1.43583,-33.84491 1.33328,-65.84379 12.61493,-94.15049c20.40954,-0.20509 40.81907,-0.41023 61.2286,-0.61536z"/>
  <path fill="#bfbfbf" fill-rule="evenodd" stroke="#000000" stroke-width="2.230682" stroke-miterlimit="4" id="path3971" d="m287.95071,69.5473c-3.48706,26.87084 -4.82034,97.43241 -9.84579,94.76586c-18.05063,1.33329 -45.63941,-1.02564 -73.22817,0c1.43586,-33.84497 3.17937,-62.76703 4.30754,-92.91977c20.40954,-0.20514 58.35691,-1.641 78.76642,-1.84609z"/>
  <path fill="#bfbfbf" fill-rule="evenodd" stroke="#000000" stroke-width="2.230682" stroke-miterlimit="4" id="path3973" d="m365.7941,68.31657c-1.64096,29.33229 -1.74353,64.81821 -3.38449,94.1505c-21.43512,4.71777 -46.25476,3.5896 -74.15122,0c1.43585,-33.84497 2.87171,-57.84413 6.15366,-91.99676c20.40951,-0.20508 50.97253,-1.94864 71.38205,-2.15374z"/>
  <path fill="#bfbfbf" fill-rule="evenodd" stroke="#000000" stroke-width="2.230682" stroke-miterlimit="4" id="path3975" d="m451.63721,67.08585c-1.64096,29.33229 -2.05121,68.51039 -7.69202,96.91961c-21.43515,4.71781 -47.4855,0.51279 -74.76657,-1.23073c1.43585,-33.84492 0.10254,-65.84379 3.69217,-96.61194c20.40954,-0.20514 58.3569,1.12815 78.76642,0.92306z"/>
  <path fill="#bfbfbf" fill-rule="evenodd" stroke="#000000" stroke-width="2.230682" stroke-miterlimit="4" id="path3977" d="m525.64288,66.71254c4.88593,31.94307 4.11524,63.88612 2.47425,93.21841c-21.43512,8.19883 -44.27591,2.89054 -71.86469,4.07451c1.43585,-33.84494 -2.35889,-68.92061 2.46146,-99.07339c20.40951,-0.20514 46.08426,-1.93056 66.92898,1.78047z"/>
  <path fill="#000000" fill-rule="evenodd" stroke="#000000" stroke-width="0.437389px" id="path6606" d="m140.50977,167.39316c-4.64135,0.29008 -9.2827,2.11864 -13.92407,2.4087c3.7711,-30.74899 2.6193,-64.2671 11.3133,-93.78537c20.30594,-0.29007 42.45796,-0.58019 62.7639,-0.87027c-0.2901,6.09177 -2.42625,12.18355 -2.71634,18.27533c-16.24475,-6.15362 -33.10485,-6.15362 -48.73425,0c-7.82374,24.65722 -11.33996,47.46831 -8.70254,73.97161z"/>
  <path fill="#000000" fill-rule="evenodd" stroke="#000000" stroke-width="0.437389px" id="path7481" d="m210.98601,163.45885c-4.64136,0.29008 -0.66763,-0.34282 -5.30899,-0.05274c1.61732,-31.05671 4.46538,-60.88255 3.62126,-91.93924c20.30594,-0.29007 58.14972,-1.19556 78.45566,-1.48564c-0.2901,6.09178 -3.34931,23.56773 -3.63941,29.65951c10.21589,-34.15263 -47.25819,-19.07623 -63.50293,-19.07623c-6.90072,11.11925 -10.41691,40.08396 -9.62559,82.89434z"/>
  <path fill="#000000" fill-rule="evenodd" stroke="#000000" stroke-width="0.437389px" id="path7483" d="m298.6012,163.00191c-4.64136,0.29008 -5.89823,-0.34282 -10.53958,-0.05274c3.77108,-30.74901 3.23468,-61.49795 7.00576,-92.24695c20.30594,-0.29007 50.45768,-1.81092 70.76361,-2.10099c-0.2901,6.09177 -0.88784,6.02993 -1.17794,12.1217c-20.55228,-9.23048 -52.79645,-6.15362 -63.19525,0c-6.28537,26.5033 -6.10938,57.3141 -2.8566,82.27898z"/>
  <path fill="#000000" fill-rule="evenodd" stroke="#000000" stroke-width="0.437389px" id="path7485" d="m380.69998,162.60678c-4.64136,0.29007 -7.10708,-1.16035 -11.74844,-0.87028c3.77109,-30.749 1.01529,-64.97894 4.78637,-95.72793c20.30594,-0.29009 56.97007,1.57615 77.27601,1.28608c-0.29007,6.09176 -0.83866,16.11896 -1.12873,22.21074c0.72522,-22.6266 -55.55124,-14.79432 -71.79599,-14.79432c-2.90084,24.65722 -7.10708,63.23848 2.61078,87.89571z"/>
  <path fill="#000000" fill-rule="evenodd" stroke="#000000" stroke-width="0.437389px" id="path7487" d="m470.7713,165.21755c-4.64136,0.29008 -9.28271,0.58019 -13.92407,0.87027c1.16031,-30.749 -1.16034,-69.76538 2.61075,-100.51437c20.30594,-0.29008 38.00113,-1.45043 65.70419,0.87027c-0.29004,6.09177 1.59552,5.65661 1.30542,11.7484c-15.80963,-13.92406 -45.54334,-6.09179 -61.78806,-6.09179c-2.90087,24.65723 -5.80172,71.94101 6.09177,93.11722z"/>
  <path fill="none" fill-opacity="0.75" fill-rule="evenodd" stroke="#000000" stroke-width="2.230682" stroke-miterlimit="4" id="path9237" d="m499.27213,277.21564c7.75979,-32.27196 8.55749,-66.2844 -42.86005,-60.9178c-52.7229,4.78637 -32.12686,30.79054 -49.82205,47.32536c-10.58808,8.04983 -24.22208,1.19131 -33.72235,4.88989"/>
  <path fill="none" fill-opacity="0.75" fill-rule="evenodd" stroke="#000000" stroke-width="2.230682" stroke-miterlimit="4" id="path9241" d="m512.97864,180.44699l-372.46887,1.7405"/>
  <path fill="none" fill-opacity="0.75" fill-rule="evenodd" stroke="#000000" stroke-width="2.230682" stroke-miterlimit="4" id="path9243" d="m509.49762,202.20335l-355.93402,-3.48098"/>
  <path fill="none" fill-opacity="0.75" fill-rule="evenodd" stroke="#000000" stroke-width="2.230682" stroke-miterlimit="4" id="path9239" d="m223.78117,269.57346c11.43753,-24.37619 9.12592,-52.36084 -29.28096,-57.12912c-52.47648,-1.66637 -35.96145,40.75692 -54.81697,46.12347c-7.83229,2.46573 -13.48894,-6.38187 -20.8861,-4.35127"/>
  <path fill="#000000" fill-rule="evenodd" stroke="#000000" stroke-width="2.230682" stroke-miterlimit="4" id="path5729" d="m186.46629,249.75937c-4.68824,-1.00849 -11.55708,5.47871 -13.95572,10.90292c-2.39865,5.42423 -0.32708,9.7854 4.36116,10.79386c4.68827,1.00854 11.9932,-1.33557 14.39185,-6.7598c2.39864,-5.42416 -0.10902,-13.92847 -4.79729,-14.93698z"/>
  <path fill="#007fff" fill-rule="evenodd" stroke="#000000" stroke-width="2.230682" stroke-miterlimit="4" id="path3963" d="m120.57205,274.46307c2.66658,-7.89718 -2.05121,-24.40934 -28.92206,-19.07621c-0.82048,6.15361 0.20512,14.15333 3.07682,18.15315c8.92276,0.82056 17.84552,1.33328 25.84524,0.92306z"/>
  <text stroke="#000000" transform="matrix(28.81007194519043,0,0,0.5234591813810875,-5469.458993345499,97.79997751587874) " xml:space="preserve" text-anchor="middle" font-family="serif" font-size="24" id="svg_1" y="186" x="202" stroke-linecap="null" stroke-linejoin="null" stroke-dasharray="null" stroke-width="0" fill="#000000"/>
 </g>
</svg>